<?xml version="1.0" encoding="UTF-8"?>
<svg id="_레이어_1" data-name="레이어 1" xmlns="http://www.w3.org/2000/svg" viewBox="0 0 68.233 68.367">
  <defs>
    <style>
      .cls-1 {
        fill: #b2292e;
      }

      .cls-1, .cls-2 {
        stroke-width: 0px;
      }

      .cls-2 {
        fill: #001b71;
      }
    </style>
  </defs>
  <path class="cls-2" d="m15.64,62.905c5.556,3.578,11.967,5.462,18.539,5.462,11.659,0,22.385-5.803,28.734-15.542l-.089-.054.374-.596c2.608-4.368,2.499-9.715-.31-14.675-3.304-5.825-9.43-9.735-15.249-9.735-1.775,0-3.465.36-5.057,1.062-2.586,1.197-4.904,3.316-6.834,6.31-2.469,3.824-5.238,6.116-7.926,7.449-2.666,1.363-5.248,1.771-7.365,1.771h0c-7.204,0-14.654-4.79-18.541-11.926-.646-1.186-1.127-2.389-1.525-3.6-1.978,12.97,3.616,26.583,15.249,34.073Z"/>
  <path class="cls-1" d="m52.58,5.465C47.028,1.893,40.621,0,34.047,0,22.394,0,11.668,5.809,5.313,15.545l.091.06-.376.594c-2.612,4.37-2.495,9.716.316,14.679,3.3,5.819,9.428,9.729,15.247,9.729,1.775,0,3.473-.363,5.059-1.067,2.584-1.196,4.898-3.315,6.83-6.305,2.471-3.828,5.246-6.121,7.932-7.452,2.662-1.366,5.244-1.773,7.357-1.773,7.204,0,14.657,4.795,18.545,11.929.646,1.187,1.127,2.394,1.527,3.6,1.978-12.968-3.618-26.584-15.261-34.075Z"/>
</svg>