<?xml version="1.0" encoding="UTF-8"?>
<svg id="_레이어_1" data-name="레이어 1" xmlns="http://www.w3.org/2000/svg" viewBox="0 0 169.353 225.499">
  <defs>
    <style>
      .cls-1 {
        fill: #7e622d;
      }

      .cls-1, .cls-2, .cls-3 {
        stroke-width: 0px;
      }

      .cls-4 {
        fill: #fff;
        font-size: 20px;
        letter-spacing: .1em;
      }

      .cls-4, .cls-5 {
        font-family: NanumMyeongjoBold, NanumMyeongjo;
      }

      .cls-2 {
        fill: #b2292e;
      }

      .cls-3 {
        fill: #001b71;
      }

      .cls-6 {
        letter-spacing: .058em;
      }

      .cls-7 {
        letter-spacing: .107em;
      }

      .cls-5 {
        fill: #231f20;
        font-size: 39px;
      }

      .cls-8 {
        letter-spacing: .1em;
      }
    </style>
  </defs>
  <rect width="169.353" height="225.499" fill="#fff"/>
  <text class="cls-5" transform="translate(0 216.32)"><tspan class="cls-6" x="0" y="0">박</tspan><tspan class="cls-7" x="39.312" y="0">상</tspan><tspan class="cls-8" x="80.538" y="0">현</tspan></text>
  <rect class="cls-2" x="121.665" y="174.007" width="30.787" height="48.747" rx="2.273" ry="2.273"/>
  <text class="cls-4" transform="translate(126.556 193.052)"><tspan x="0" y="0">명</tspan><tspan x="0" y="23">장</tspan></text>
  <g>
    <path class="cls-3" d="m53.295,120.212c5.556,3.578,11.967,5.462,18.539,5.462,11.659,0,22.385-5.803,28.734-15.542l-.089-.054.374-.596c2.608-4.368,2.499-9.715-.31-14.675-3.304-5.825-9.43-9.735-15.249-9.735-1.775,0-3.465.36-5.057,1.062-2.586,1.197-4.904,3.316-6.834,6.31-2.469,3.824-5.238,6.116-7.926,7.449-2.666,1.363-5.248,1.771-7.365,1.771h0c-7.204,0-14.654-4.79-18.541-11.926-.646-1.186-1.127-2.389-1.525-3.6-1.978,12.97,3.616,26.583,15.249,34.073Z"/>
    <path class="cls-2" d="m90.235,62.773c-5.552-3.573-11.959-5.465-18.533-5.465-11.653,0-22.379,5.809-28.734,15.545l.091.06-.376.594c-2.612,4.37-2.495,9.716.316,14.679,3.3,5.819,9.428,9.729,15.247,9.729,1.775,0,3.473-.363,5.059-1.067,2.584-1.196,4.898-3.315,6.83-6.305,2.471-3.828,5.246-6.121,7.932-7.452,2.662-1.366,5.244-1.773,7.357-1.773,7.204,0,14.657,4.795,18.545,11.929.646,1.187,1.127,2.394,1.527,3.6,1.978-12.968-3.618-26.584-15.261-34.075Z"/>
    <path class="cls-1" d="m14.858,66.08c-1.7.145-2.968,1.644-2.825,3.347.141,1.707,1.646,2.971,3.345,2.824,1.706-.146,2.97-1.639,2.825-3.347-.143-1.704-1.646-2.963-3.345-2.824Z"/>
    <path class="cls-1" d="m14.317,75.48c-.145-1.706-1.646-2.97-3.344-2.825-1.702.143-2.966,1.638-2.829,3.344.145,1.705,1.646,2.973,3.353,2.827,1.702-.148,2.966-1.645,2.821-3.346Z"/>
    <path class="cls-1" d="m22.098,69.258c1.706-.147,2.968-1.645,2.825-3.345-.143-1.709-1.646-2.967-3.348-2.823-1.698.142-2.968,1.638-2.821,3.343.143,1.706,1.642,2.975,3.344,2.825Z"/>
    <path class="cls-1" d="m14.663,64.862c1.706-.145,2.97-1.64,2.825-3.344-.147-1.705-1.646-2.968-3.348-2.824-1.698.14-2.966,1.643-2.829,3.345.149,1.704,1.65,2.968,3.352,2.823Z"/>
    <path class="cls-1" d="m11.055,67.038c-.145-1.707-1.644-2.969-3.346-2.824-1.702.143-2.972,1.638-2.827,3.343.145,1.705,1.646,2.974,3.351,2.826,1.702-.148,2.966-1.642,2.823-3.345Z"/>
    <path class="cls-1" d="m17.044,74.75c.143,1.702,1.644,2.965,3.343,2.823,1.706-.145,2.974-1.643,2.825-3.344-.141-1.706-1.642-2.973-3.344-2.832-1.706.148-2.97,1.649-2.823,3.352Z"/>
    <path class="cls-1" d="m125.94,118.197c.237.086,4.109,1.55,6.306,4.052,2.66-2.761,3.558-4.685,3.095-6.26-.04-.16-.101-.32-.189-.476-.012-.031-.028-.066-.044-.098-1.664-2.849-10.156-5.216-10.327-5.262-1.747-.122-3.039.485-2.707,2.668,0,0-1.419.525-2.517,3.93-2.189-1.417-4.013-.941-5.192-.253-.906.534-1.429,1.195-1.429,1.195-.133.175-.274.343-.406.517-2.56,3.324-5.673,6.358-8.52,8.811-18.755,15.408-37.115,13.165-37.115,13.165-4.918-.534-10.468-1.253-15.181-4.143.008.019.014.037.014.037-.839-.624-1.294-.458-1.515-.25l-.181.263c-.31.569-.052.975.191,1.198,3.63,2.35,7.584,3.57,11.5,4.408,1.018.207,5.182.938,9.697.892,0,0,.03,0,.082.002h.004c.105.007.282.019.473.046.167.045.296.145.356.322.024.134-.016.295-.245.408-.056.025-.117.049-.187.067-.046.01-.109.017-.161.028-1.407.097-2.791.135-4.135.114l-.191.002-.02-.006c-4.524-.104-8.619-1.059-12.031-1.991-.958-.249-1.879-.526-2.749-.829-.962-.314-1.855-.626-2.642-.926-.28-.107-.549-.214-.827-.323-.684-.278-1.268-.481-1.771-.688-.052-.025-.105-.044-.159-.066-1.063-.447-1.676-.749-1.676-.749l.028.004c-3.55-1.673-6.174-3.469-7.752-4.7v.004c-1.582-1.141-2.411-.728-2.737-.442l-.165.18c-1.044,1.169.193,2.191.358,2.313.62.469,1.413,1.055,2.385,1.716,5.347,3.64,15.523,8.938,25.929,9.849.068.006.121.03.177.051.05.021.099.042.141.069.205.135.431.376.419.644-.016.379-.334.673-.72.662-1.274-.052-2.531-.193-3.763-.419-6.007-1.059-11.708-2.604-16.449-4.756-3.147-1.429-5.989-3.058-8.077-4.354h0c-.857-.476-1.672-1.015-2.447-1.585-.032-.018-.052-.036-.082-.053h-.002c-.573-.393-.93-.653-1.014-.716-.127-.042-.06-.02,0,0-.185-.167-.366-.35-.547-.521-.151-.127-.294-.252-.435-.377-11.561-9.807-15.756-23.57-15.756-23.57l.004.004c-.189-.547-.338-1.018-.451-1.392h0c-.551-1.654-1.229-1.682-1.477-1.627-.038.009-.073.017-.109.03-1.465.459-.733,4.351-.704,4.508.972,4.526,5.149,19.095,19.998,29.404.316.218.39.65.173.965-.133.191-.35.298-.57.298-.135,0-.272-.04-.394-.125-4.892-3.395-8.643-7.243-11.539-11.064-.213-.309-1.171-1.64-2.159-2.416-.75-.516-1.314-.513-1.662-.42-.008.003-.012.003-.02.009l.008.006c-.074.019-.153.057-.233.096-.266.184-.517.717.459,2.189.885,1.389,2.831,4.211,5.993,7.534h-.006s15.573,20.707,49.573,19.872c.06.005,3.099.065,7.224-.461l-.006.004s4.989-.33,10.977-2.184c1.505-.412,2.986-.92,4.375-1.594,2.538-1.08,5.067-2.477,7.363-4.237,0-.004.002-.004.002-.004.171-.124.362-.268.563-.42.036-.024.073-.052.101-.075.064-.051.125-.09.183-.14l-.004.003c.553-.429,1.121-.888,1.387-1.192,0,0,.616-.642,1.262-.079.286.257.304.693.046.978-1.282,1.415-2.668,2.665-4.119,3.768-16.903,10.376-36.542,6.865-36.759,6.825-.761-.144-1.473.354-1.614,1.109-.145.75.352,1.476,1.101,1.617.378.073,3.902.706,9.144.706,5.54,0,12.99-.717,20.673-3.555,6.472-2.114,13.915-5.749,21.427-11.96v.007s.097-.08.266-.222c.121-.102.29-.245.479-.408.302-.261.684-.589,1.129-.985.332-.293.694-.621,1.089-.975,4.765-4.327,13.654-13.093,14.235-18.757l.016.043c.024-.124.008-.239.02-.361,0-.062.018-.126.018-.187,0-.04-.008-.075-.008-.116-.002-.173-.01-.347-.034-.513-.014-.115-.044-.226-.068-.34-.064-.281-.163-.543-.27-.8-.004-.013-.012-.026-.02-.037-.618-1.432-1.763-2.425-1.763-2.425l.012.026c-1.541-1.448-3.84-2.562-5.041-3.006-.475-.177-.718-.709-.543-1.187.177-.479.708-.725,1.185-.544Z"/>
    <path class="cls-1" d="m31.768,136.474h0c.105.035.056.017,0,0Z"/>
    <g>
      <path class="cls-1" d="m124.6,19.759c.41-.487.797-.974,1.199-1.412.407-.43.809-.841,1.195-1.237.797-.762,1.565-1.43,2.274-1.975.718-.541,1.338-1.02,1.892-1.356,1.103-.685,1.739-1.052,1.739-1.052,0,0-.517.514-1.449,1.383-.469.423-.97,1.021-1.586,1.642-.318.296-.598.677-.922,1.05-.312.382-.678.743-.998,1.183-.322.43-.664.874-1.02,1.335-.328.477-.664.975-1.016,1.484-.274.415-.541.855-.809,1.299-.219.373-.443.752-.654,1.141.034-.019.079-.042.109-.059l.05.856.008.231c-.018.521-.157,5.729,2.262,8.048.213.198.427.397.654.585.243.166.465.36.742.496.264.147.541.292.833.395.284.115.592.198.898.272.314.072.616.12.974.132l.254.011.076-.216.189-.541c.056-.18.139-.36.169-.546l.141-.56c.052-.183.066-.374.101-.563.06-.376.076-.755.09-1.139.018-.191-.006-.382-.014-.571-.012-.195-.016-.385-.048-.573-.04-.381-.119-.752-.201-1.132-.098-.335-.205-.672-.328-1.005.356.236.741.431,1.121.63.402.191.809.379,1.236.529,1.69.639,3.533.93,5.361.978.91.016,1.825-.027,2.725-.118.906-.088,1.795-.233,2.672-.422.877-.183,1.743-.408,2.588-.673.435-.131.857-.269,1.268-.426.429-.152.829-.299,1.268-.497l.724-.325-.374-.607-.616-1.012c-.217-.34-.398-.689-.682-.991l-.783-.948c-.258-.315-.61-.567-.904-.859-.308-.281-.612-.575-.98-.801-.352-.247-.698-.499-1.059-.73l-1.151-.617c-.386-.22-.821-.343-1.225-.519-.203-.079-.404-.163-.618-.235l-.636-.19c-.427-.127-.849-.265-1.292-.333-.435-.084-.865-.209-1.308-.253-.447-.057-.888-.133-1.326-.162-.404-.024-.807-.061-1.211-.072l.843-.544c.455-.303.938-.584,1.336-.941l1.256-1.042c.217-.159.403-.347.58-.552l.551-.584c.362-.394.749-.778,1.028-1.22.3-.431.626-.855.904-1.303l.716-1.389c.217-.468.356-.964.527-1.447.193-.484.242-.996.362-1.492.133-.491.129-1.006.177-1.508.06-.501,0-1.007,0-1.51-.032-.506-.097-1.012-.177-1.51-.099-.491-.207-.998-.366-1.481-.141-.507-.31-.957-.555-1.497l-.244-.511-.618-.043c-.608-.04-1.207-.135-1.819-.131l-.918-.006-.924.068c-.304.018-.61.065-.916.113-.302.053-.616.079-.91.165l-.891.215-.867.289c-.302.087-.567.222-.845.337-.282.116-.556.24-.817.379-.533.268-1.022.584-1.517.906-.467.335-.936.679-1.352,1.056-.423.365-.831.754-1.199,1.161-1.509,1.607-2.618,3.428-3.497,5.292-.205.443-.354.903-.535,1.351l-.189-.621c-.098-.345-.286-.669-.422-1.007-.153-.325-.282-.669-.487-.984l-.571-.957-.692-.897c-.217-.307-.515-.564-.771-.851-.247-.29-.557-.538-.847-.794-.286-.265-.612-.495-.932-.73-.312-.231-.662-.439-1-.644-.334-.217-.716-.38-1.07-.575-.374-.164-.741-.341-1.135-.48-.399-.149-.769-.259-1.246-.375l-.899-.209-.217.753-.73,2.564c-.119.431-.167.882-.247,1.313l-.225,1.312c-.038.444-.05.897-.07,1.341-.006.446-.072.888-.004,1.335l.127,1.351c.048.447.199.891.298,1.33.068.224.117.445.179.664l.276.643c.181.426.334.86.616,1.256.27.401.475.82.813,1.182.324.358.61.753.998,1.071l.551.501c.189.152.401.289.606.439.119.089.249.15.368.225l-.296-.01c-.316.014-.622.043-.926.065-.308.012-.618.063-.912.126-.3.066-.616.089-.905.196-.29.089-.588.167-.869.266l-.837.339c-.27.127-.523.272-.791.412-.26.132-.497.31-.743.466-.471.324-.918.69-1.322,1.078-.398.398-.761.802-1.083,1.279l-.159.243.244.147.795.476c.266.158.523.325.823.442l.865.367c.296.115.61.184.92.276l.457.126c.159.033.32.057.473.08.322.038.634.108.958.121l.964.027c.316,0,.638-.04.956-.068.322-.007.624-.073.94-.124l.477-.083.447-.123c.308-.082.612-.155.902-.267.294-.109.59-.198.865-.325.189-.08.36-.177.547-.261.298-.58.62-1.151.942-1.699.698-1.214,1.495-2.296,2.282-3.299Z"/>
      <path class="cls-1" d="m169.323,64.222c-.03-.666-.014-1.324-.103-1.993l-.109-.992-.197-.997c-.056-.333-.153-.66-.247-.987-.105-.314-.171-.649-.308-.96l-.362-.945-.443-.909c-.141-.317-.318-.585-.491-.875-.165-.29-.338-.57-.535-.834-.382-.553-.805-1.044-1.231-1.538-.439-.465-.885-.929-1.371-1.334-.481-.418-.974-.81-1.479-1.162-2.028-1.436-4.238-2.407-6.47-3.136-.531-.169-1.065-.273-1.604-.413l.674-.288c.38-.144.733-.387,1.091-.578.356-.211.73-.389,1.053-.656l1.014-.744.93-.854c.322-.276.58-.632.865-.943.298-.312.543-.671.795-1.023.256-.343.477-.725.7-1.103.232-.37.417-.771.606-1.169.201-.393.346-.822.519-1.232.125-.428.278-.848.382-1.293.121-.45.199-.868.266-1.406l.125-.996-.879-.141-3.012-.478c-.499-.076-1.014-.069-1.525-.105l-1.521-.082c-.511.015-1.022.062-1.525.094-.513.047-1.022.031-1.527.162l-1.515.306c-.503.098-.98.335-1.467.491-.243.089-.489.175-.728.278l-.698.376c-.461.253-.938.477-1.34.834-.423.331-.875.611-1.242,1.024-.372.394-.773.758-1.083,1.218l-.497.661c-.149.227-.278.478-.422.718-.077.123-.137.258-.207.388l-.022-.288c-.06-.335-.133-.667-.197-.999-.056-.335-.153-.657-.268-.978-.119-.317-.185-.653-.332-.951-.135-.305-.27-.614-.419-.917l-.497-.864c-.175-.278-.376-.541-.564-.802-.199-.273-.418-.502-.63-.754-.431-.47-.908-.91-1.409-1.305-.503-.38-1.006-.72-1.594-1.006l-.29-.148-.133.285-.439.922c-.145.312-.302.608-.39.948l-.302.988c-.103.329-.129.692-.201,1.025l-.083.514c-.016.177-.018.355-.026.534.004.346-.042.697-.012,1.048l.101,1.048c.04.352.125.691.189,1.034.06.348.181.676.276,1.007l.147.5.209.478c.133.318.254.639.423.938.157.308.294.624.479.912.149.244.312.476.471.713l-.016.024.191.238c.159.239.306.486.477.715.314.435.678.836,1.042,1.23.012.005.024.007.036.011-.125-.163-.25-.331-.38-.496l.415.51c.394.161.811.312,1.185.481.537.259,1.051.504,1.553.748.706.379,1.34.758,1.93,1.125,2.634,1.582,4.081,3.109,4.081,3.109-4.433-2.238-8.403-3.469-11.933-4.037-.421.098-.831.199-1.199.305-.211.043-.421.106-.63.153l-.869.221-.841.328c-.113.036-.217.107-.33.153-.135.055-.217.088-.217.088h.042c-.111.055-.217.091-.32.149-.253.159-.539.274-.785.469l-.737.561-.668.675c-.201.258-.394.512-.587.78-.149.288-.338.562-.453.879-.135.299-.259.616-.344.953-.103.322-.153.661-.189,1.005-.042.353-.06.685-.024,1.072l.014.281.258.051.642.142c.217.043.421.106.644.12l.648.079c.222.032.439.022.656.036.439.02.873-.004,1.308-.041.217-.006.431-.06.65-.09.211-.033.425-.064.638-.12.431-.089.849-.227,1.262-.367.368-.145.744-.303,1.099-.481-.217.417-.391.861-.562,1.302-.169.462-.33.923-.447,1.404-.507,1.923-.596,3.957-.41,5.944.103.997.27,1.982.491,2.95.221.967.503,1.921.837,2.857.322.926.684,1.841,1.103,2.728.201.449.421.888.642,1.322.236.44.457.853.736,1.306l.469.75.628-.478,1.076-.804c.36-.275.722-.52,1.034-.858l.968-.971c.326-.324.578-.728.865-1.091.278-.371.573-.736.781-1.163.23-.415.475-.823.696-1.245l.543-1.33c.193-.444.282-.926.427-1.387.064-.236.133-.467.191-.702l.133-.719c.083-.479.177-.955.207-1.443.04-.483.121-.967.113-1.46,0-.482.032-.973.008-1.454-.028-.443-.036-.885-.072-1.33l.732.857c.399.452.769.941,1.24,1.332l1.34,1.233c.217.212.459.389.708.561l.733.53c.503.337.978.709,1.525.958.535.275,1.055.57,1.602.816l1.666.602c.559.18,1.147.273,1.716.402.573.154,1.155.137,1.733.203.584.084,1.159.002,1.741-.002.582.007,1.143-.125,1.719-.184.57-.098,1.129-.237,1.688-.381.551-.18,1.101-.35,1.638-.573.547-.225,1.05-.463,1.618-.805l.559-.326-.03-.677Z"/>
      <path class="cls-1" d="m125.755,61.467c-.189-.316-.374-.632-.567-.947-.722-1.272-1.572-2.457-2.419-3.626-.423-.584-.825-1.176-1.264-1.745-.155-.191-.31-.374-.467-.557-.519-.748-1.075-1.49-1.664-2.211,2.224-3.02,8.003-4.152,11.488-4.565,1.92-.125,4.029-.054,6.339.314l3.544-1.128c-1.564-.556-3.334-.996-5.286-1.217h.004c-.048-.008-.095-.008-.135-.012-.374-.039-.75-.072-1.137-.096-.181-.011-.366-.019-.549-.023-2.449-.093-5.154.176-8.09.982-2.576.621-4.856,1.398-6.429,1.995-.161-2.122-.153-4.187-.024-6.155.024-.316.052-.636.076-.957.028-.34.064-.676.101-1.01.101-.966.245-1.948.402-2.929,1.006-5.949,2.837-10.386,3.443-11.74.258-.576.527-1.141.815-1.681.173-.313.342-.61.509-.913-.01.005-.022.014-.034.017-.612.335-1.509.734-1.928.965-.354.193-.732.359-1.107.529-.368.701-.716,1.422-1.038,2.175-.296.684-.529,1.403-.809,2.109-.237.723-.477,1.451-.692,2.195-.245.971-.467,1.954-.668,2.942l-.016.034s-.052.263-.135.685c-1.777,8.935-1.507,12.997-1.254,14.462-.35-.38-.696-.765-1.05-1.141-.66-.655-1.342-1.292-2.016-1.924-.708-.6-1.381-1.232-2.097-1.799-1.417-1.163-2.898-2.197-4.367-3.136-1.457-.955-2.946-1.751-4.375-2.458-.72-.337-1.413-.689-2.097-.984-.177-.07-.342-.132-.515-.202l.644-.123c.346-.001.692-.077,1.04-.113l1.038-.133c.348-.036.688-.145,1.03-.213l1.026-.239.998-.347c.34-.103.666-.245.98-.414.314-.166.648-.289.946-.494l.893-.596.809-.715c.242-.272.483-.543.712-.825.191-.307.422-.594.576-.929.169-.325.326-.656.433-1.01.127-.342.207-.707.266-1.07.06-.375.091-.723.07-1.139l-.014-.291-.3-.058-.747-.147c-.256-.045-.501-.109-.759-.128l-.761-.08c-.256-.036-.511-.028-.767-.036-.513-.027-1.028.005-1.537.041-.254.01-.507.064-.765.095-.253.036-.509.066-.759.129-.509.098-1.002.24-1.493.388-.445.151-.879.318-1.308.507.27-.439.485-.91.708-1.372.205-.492.415-.983.573-1.493.666-2.035.845-4.193.698-6.297-.076-1.053-.237-2.098-.461-3.125-.227-1.023-.521-2.031-.869-3.018-.346-.987-.747-1.955-1.199-2.897-.223-.473-.461-.94-.708-1.401-.26-.466-.505-.902-.819-1.382l-.511-.793-.773.507-1.292.851c-.423.292-.873.553-1.244.914l-1.175,1.029c-.398.339-.702.769-1.058,1.151-.342.392-.694.783-.962,1.235-.286.44-.586.87-.859,1.317l-.69,1.415c-.25.466-.372.978-.557,1.466-.082.245-.175.491-.247.743l-.185.76c-.115.507-.25,1.011-.298,1.526-.06.514-.177,1.029-.185,1.545-.02.517-.077,1.033-.064,1.548.012.468.006.936.034,1.403l-.827-.904c-.451-.481-.875-.999-1.409-1.413l-1.527-1.302c-.247-.23-.527-.418-.813-.599l-.849-.554c-.567-.366-1.121-.756-1.753-1.022-.612-.286-1.215-.603-1.847-.859l-1.94-.641c-.654-.189-1.336-.285-2.002-.424-.668-.159-1.354-.141-2.034-.214-.682-.086-1.36-.002-2.04-.002-.686-.004-1.354.136-2.032.201-.668.106-1.334.251-1.996.408-.652.184-1.308.363-1.946.609-.654.238-1.246.488-1.936.85l-.666.345.014.719c.014.702-.042,1.406.04,2.108l.095,1.059.191,1.053c.054.349.155.695.254,1.039.109.34.179.693.324,1.021l.394,1.001.479.956c-19.242,1.536-36.427,12.014-46.633,28.724-.402.652-.189,1.504.459,1.903.225.14.477.204.725.204.465,0,.922-.236,1.181-.663,10.031-16.416,27.114-26.533,46.132-27.518.222.26.437.537.672.794.503.496,1.014.984,1.566,1.417.543.442,1.109.856,1.694,1.229,2.33,1.522,4.894,2.55,7.492,3.317.59.172,1.185.324,1.785.466l-.727.275c-.449.153-.863.415-1.298.617-.425.218-.865.412-1.264.691l-1.216.787-1.131.911c-.384.293-.7.671-1.05.999-.358.33-.658.711-.964,1.087-.326.362-.594.766-.871,1.165-.284.39-.515.818-.755,1.239-.253.413-.433.868-.65,1.305-.173.454-.368.899-.507,1.373-.153.475-.266.919-.362,1.486l-.181,1.055,1.024.147,3.528.506c.59.081,1.191.072,1.785.112l1.789.086c.598-.016,1.197-.067,1.799-.099.6-.055,1.199-.034,1.795-.174l1.791-.327c.593-.106,1.169-.349,1.751-.521.286-.097.582-.182.865-.289l.833-.401c.547-.271,1.111-.509,1.612-.884.501-.354,1.048-.651,1.491-1.091.453-.414.94-.802,1.32-1.289l.608-.7c.185-.242.346-.504.523-.76.097-.131.175-.273.258-.412l.02.307c.054.352.129.704.193,1.056.056.351.155.695.278,1.033.115.338.187.693.354,1.011.153.323.298.65.459.967l.553.916c.199.295.421.572.632.856.217.281.473.526.708.793.497.502,1.032.965,1.604,1.379.579.408,1.159.77,1.837,1.075l.34.151.169-.302.548-.977c.177-.326.378-.644.491-1.003l.398-1.046c.125-.353.173-.73.266-1.091l.117-.544c.026-.184.032-.373.052-.561.02-.37.075-.744.056-1.114l-.076-1.111c-.036-.369-.125-.729-.189-1.093-.052-.37-.179-.715-.286-1.069l-.165-.529-.213-.504c-.141-.338-.278-.681-.461-.997-.175-.323-.328-.657-.533-.962-.376-.622-.793-1.225-1.246-1.79-.451-.572-1.264-1.723-1.791-2.217l.074-.01c-.423-.199-.845-.385-1.246-.581-.624-.29-1.201-.597-1.769-.812-1.139-.446-2.109-.912-2.944-1.201-1.66-.61-2.608-.976-2.608-.976,0,0,.517.086,1.429.252.378.069.803.148,1.318.246.229.037.497.11.75.168.006.002.012.005.02.006.706.162,1.471.365,2.352.598,1.199.335,2.539.778,3.976,1.316.399.158.819.331,1.228.496.336.137.656.266.998.403l-.739,1.511c-.247-.128-.469-.247-.706-.37.125.066.233.129.358.2.616.376,1.256.771,1.914,1.173,1.298.831,2.63,1.761,3.962,2.773,1.348.999,2.644,2.143,3.964,3.309.656.578,1.274,1.217,1.918,1.827.622.641,1.236,1.285,1.841,1.938,1.201,1.32,2.379,2.671,3.437,4.082,1.07,1.392,2.093,2.801,3.025,4.202.902,1.416,1.789,2.785,2.545,4.137.763,1.342,1.465,2.632,2.073,3.842.656,1.314,1.219,2.513,1.7,3.583.487,1.276.928,2.565,1.318,3.855.837,2.673,1.385,5.384,1.839,8.019.165,1.324.33,2.629.487,3.907.105,1.281.153,2.541.227,3.767.119,1.228.01,2.388-.002,3.576-.056,1.162-.004,2.312-.149,3.369-.298,2.113-.342,4.091-.744,5.803-.356,1.707-.523,3.247-.921,4.445-.28,1.041-.499,1.856-.668,2.486l2.123.648c10.406-27.213-4.131-48.762-4.131-48.762h-.008Z"/>
    </g>
  </g>
</svg>
